<?xml version="1.0" standalone="no"?>
<!DOCTYPE svg PUBLIC "-//W3C//DTD SVG 20010904//EN"
 "http://www.w3.org/TR/2001/REC-SVG-20010904/DTD/svg10.dtd">
<svg version="1.0" xmlns="http://www.w3.org/2000/svg"
 width="900.000000pt" height="600.000000pt" viewBox="0 0 900.000000 600.000000"
 preserveAspectRatio="xMidYMid meet">
<metadata>
Created by potrace 1.15, written by Peter Selinger 2001-2017
</metadata>
<g transform="translate(0.000000,600.000000) scale(0.100000,-0.100000)"
fill="#000000" stroke="none">
<path d="M4300 5993 c-726 -53 -1391 -353 -1905 -859 -699 -688 -1015 -1671
-850 -2639 152 -891 696 -1663 1490 -2113 319 -180 701 -306 1090 -358 162
-22 549 -25 710 -5 685 82 1309 384 1787 863 723 726 1025 1761 807 2763 -221
1011 -965 1847 -1951 2190 -358 125 -808 185 -1178 158z m420 -653 c340 -87
601 -359 676 -705 22 -103 22 -284 0 -384 -36 -162 -120 -322 -235 -444 -113
-120 -248 -202 -417 -253 -80 -25 -104 -28 -244 -28 -140 0 -164 3 -243 27
-338 103 -579 361 -653 700 -26 116 -22 300 10 420 94 364 384 625 761 688 81
13 252 3 345 -21z m50 -2046 c699 -100 1293 -624 1489 -1315 49 -173 65 -288
66 -459 0 -153 0 -156 -31 -220 -100 -209 -356 -368 -765 -474 -283 -74 -708
-126 -1024 -126 -315 0 -747 53 -1031 125 -410 105 -672 268 -771 480 -27 58
-28 64 -27 225 1 138 6 187 28 295 118 571 471 1036 981 1293 123 62 177 84
306 122 250 74 510 92 779 54z"/>
</g>
</svg>
